<svg width="27" height="25" viewBox="0 0 27 25" fill="none" xmlns="http://www.w3.org/2000/svg">
<path d="M26.2747 10.8738C26.2741 10.8732 26.2735 10.8727 26.2729 10.8721L15.2579 0.674438C14.7884 0.239563 14.1642 0 13.5002 0C12.8362 0 12.212 0.239372 11.7422 0.674248L0.733028 10.8667C0.72932 10.8702 0.725611 10.8738 0.721903 10.8772C-0.242246 11.775 -0.240597 13.2317 0.726641 14.1272C1.16854 14.5365 1.75218 14.7736 2.3762 14.7984C2.40154 14.8006 2.42709 14.8018 2.45284 14.8018H2.89186V22.3066C2.89186 23.7917 4.19696 25 5.8014 25H10.1108C10.5476 25 10.9019 24.6721 10.9019 24.2676V18.3838C10.9019 17.7061 11.4973 17.1549 12.2293 17.1549H14.7711C15.503 17.1549 16.0984 17.7061 16.0984 18.3838V24.2676C16.0984 24.6721 16.4526 25 16.8895 25H21.1989C22.8034 25 24.1085 23.7917 24.1085 22.3066V14.8018H24.5156C25.1793 14.8018 25.8036 14.5624 26.2735 14.1275C27.2418 13.2305 27.2422 11.7714 26.2747 10.8738Z" fill="black"/>
</svg>
