<svg width="14" height="9" viewBox="0 0 14 9" fill="none" xmlns="http://www.w3.org/2000/svg" xlink:href="data:image/png">
<path d="M12.8333 0H1.16668C0.523223 0 0 0.448477 0 1.00001V8.00002C0 8.55152 0.523223 9 1.16668 9H12.8334C13.4768 9 14 8.55152 14 7.99999V1.00001C14 0.448477 13.4768 0 12.8333 0ZM1.16668 0.499992H12.8334C12.8763 0.499992 12.9142 0.513422 12.9545 0.521016C11.9445 1.31337 8.59532 3.93959 7.42328 4.84472C7.33157 4.91552 7.18375 4.99999 7.00003 4.99999C6.8163 4.99999 6.66848 4.91552 6.57647 4.84448C5.40455 3.93949 2.05518 1.31313 1.0453 0.521063C1.08571 0.513469 1.12366 0.499992 1.16668 0.499992ZM0.583324 7.99999V1.00001C0.583324 0.951023 0.600551 0.906586 0.615973 0.86182C1.38904 1.46829 3.72594 3.30073 5.24122 4.48181C3.73086 5.59385 1.39336 7.49341 0.614141 8.1303C0.600387 8.08779 0.583324 8.04621 0.583324 7.99999ZM12.8333 8.50001H1.16668C1.12008 8.50001 1.07866 8.48609 1.03515 8.47718C1.84034 7.81924 4.19273 5.90876 5.67654 4.82072C5.86996 4.97112 6.04666 5.10825 6.18595 5.21583C6.42636 5.40188 6.70775 5.50001 7 5.50001C7.29225 5.50001 7.57364 5.40185 7.81375 5.21606C7.95309 5.10844 8.12993 4.97119 8.32347 4.82072C9.80736 5.90864 12.1594 7.81898 12.9648 8.47718C12.9213 8.48609 12.88 8.50001 12.8333 8.50001ZM13.4167 7.99999C13.4167 8.04619 13.3996 8.08779 13.3859 8.1303C12.6064 7.49309 10.2691 5.59373 8.7588 4.48184C10.2741 3.30075 12.6107 1.46848 13.384 0.861773C13.3994 0.906539 13.4167 0.951 13.4167 0.999984V7.99999Z" fill="white"/>
</svg>
