<svg id="_x31_" height="512" viewBox="0 0 24 24" width="512" xmlns="http://www.w3.org/2000/svg"><path d="m12 15c-.276 0-.5-.224-.5-.5v-5c0-.276.224-.5.5-.5s.5.224.5.5v5c0 .276-.224.5-.5.5z"/><path d="m15.5 15c-.276 0-.5-.224-.5-.5v-5c0-.276.224-.5.5-.5h1.5c1.103 0 2 .897 2 2s-.897 2-2 2h-1v1.5c0 .276-.224.5-.5.5zm.5-3h1c.551 0 1-.449 1-1s-.449-1-1-1h-1z"/><path d="m7 15c-.221 0-.416-.145-.479-.356l-1.5-5c-.079-.265.071-.543.335-.623.264-.079.543.071.623.335l1.021 3.404 1.021-3.403c.079-.265.356-.415.623-.336.265.08.415.358.335.623l-1.5 5c-.063.211-.258.356-.479.356z"/><path d="m21.5 19h-19c-1.378 0-2.5-1.122-2.5-2.5v-9c0-1.378 1.122-2.5 2.5-2.5h19c1.378 0 2.5 1.122 2.5 2.5v9c0 1.378-1.122 2.5-2.5 2.5zm-19-13c-.827 0-1.5.673-1.5 1.5v9c0 .827.673 1.5 1.5 1.5h19c.827 0 1.5-.673 1.5-1.5v-9c0-.827-.673-1.5-1.5-1.5z"/></svg>